<?xml version="1.0" standalone="no"?>
<!DOCTYPE svg PUBLIC "-//W3C//DTD SVG 20010904//EN"
 "http://www.w3.org/TR/2001/REC-SVG-20010904/DTD/svg10.dtd">
<svg version="1.0" xmlns="http://www.w3.org/2000/svg"
 width="500.000000pt" height="500.000000pt" viewBox="0 0 500.000000 500.000000"
 preserveAspectRatio="xMidYMid meet">

<g transform="translate(0.000000,500.000000) scale(0.100000,-0.100000)"
fill="#D7EDFF" stroke="none">
<path d="M2400 4544 c-72 -6 -262 -35 -295 -44 -16 -5 -50 -14 -75 -20 -40
-11 -152 -49 -205 -70 -11 -4 -59 -26 -107 -49 -48 -22 -89 -41 -92 -41 -24 0
-309 -207 -392 -285 -88 -82 -254 -281 -326 -390 -106 -161 -157 -263 -213
-431 -77 -231 -97 -328 -105 -519 -6 -156 -5 -172 12 -197 10 -15 18 -45 18
-68 0 -22 5 -40 10 -40 6 0 10 9 10 19 0 22 23 34 38 19 7 -7 14 2 22 28 l13
37 13 -24 c7 -13 11 -31 8 -40 -3 -10 2 -18 13 -21 15 -4 107 -4 151 1 10 1
13 28 11 116 -1 65 3 121 9 128 5 6 12 35 15 62 10 104 27 184 61 278 35 97
122 263 183 348 18 26 33 50 33 54 0 19 117 154 250 288 124 125 150 147 175
147 l30 -1 -31 -27 c-123 -109 -424 -450 -424 -480 0 -4 -14 -27 -30 -52 -26
-37 -92 -168 -130 -255 -15 -33 -37 -107 -49 -162 -6 -29 -16 -74 -21 -100
-10 -47 -12 -340 -2 -377 4 -18 6 -17 18 7 12 22 20 26 55 24 25 -1 43 4 49
12 7 12 11 11 25 -3 33 -33 40 -14 46 130 7 131 15 194 37 289 35 150 175 381
289 478 40 35 34 -1 -10 -55 -38 -47 -98 -135 -149 -218 -13 -22 -59 -141 -97
-250 -7 -19 -15 -106 -18 -193 -7 -186 7 -292 38 -294 14 -1 19 5 19 23 0 27
3 28 32 13 19 -10 20 -9 15 10 -6 24 8 29 17 5 4 -9 13 -14 21 -10 13 5 20 -5
16 -26 0 -5 4 -8 10 -8 7 0 18 -8 26 -17 12 -16 13 -13 8 27 -13 109 -17 244
-7 283 6 23 16 69 23 102 7 33 27 92 44 131 35 78 124 221 154 248 17 16 19
16 25 0 4 -11 -12 -45 -47 -98 -83 -126 -101 -170 -134 -326 -35 -163 -13
-404 47 -515 9 -16 20 -43 24 -59 4 -17 15 -41 25 -55 50 -70 62 -182 27 -250
-13 -24 -14 -36 -6 -46 8 -9 8 -15 0 -20 -7 -4 -7 -12 0 -25 7 -13 7 -21 0
-25 -6 -4 -3 -17 10 -35 11 -15 20 -31 20 -34 0 -3 11 -29 25 -58 14 -28 25
-60 25 -70 0 -10 7 -18 15 -18 8 0 19 -16 25 -39 5 -21 16 -44 24 -50 8 -7 12
-21 9 -31 -4 -14 0 -20 11 -20 12 0 16 -10 16 -39 0 -22 6 -44 15 -51 8 -7 15
-19 15 -26 0 -8 5 -14 10 -14 6 0 10 -9 10 -19 0 -10 7 -22 16 -25 11 -4 14
-13 11 -28 -3 -11 1 -34 8 -49 8 -15 12 -34 9 -42 -2 -7 3 -20 12 -27 17 -15
84 -116 84 -128 0 -13 50 -62 63 -62 7 0 33 -18 57 -41 45 -42 71 -47 124 -24
13 6 17 5 13 -2 -7 -10 64 0 84 13 4 2 10 0 14 -6 8 -13 45 -13 45 -1 0 5 -6
12 -12 14 -7 2 -1 3 14 1 18 -2 32 3 41 16 7 10 26 24 42 31 28 12 135 77 195
119 14 9 37 21 50 25 14 4 37 20 52 35 29 31 102 88 205 162 37 26 69 51 72
56 3 4 42 33 85 63 44 30 87 61 96 69 67 61 131 123 156 152 16 18 46 41 65
51 57 27 271 244 311 316 11 19 30 43 44 53 13 11 24 26 24 34 0 8 5 14 10 14
6 0 9 3 8 8 -3 8 73 125 85 130 4 2 7 12 7 23 0 13 5 17 17 12 11 -4 14 -3 9
5 -8 13 15 42 33 42 6 0 11 5 11 11 0 6 9 23 20 39 13 18 22 53 27 101 6 74 7
74 20 42 14 -34 33 -44 33 -18 0 8 6 15 14 15 25 0 30 345 6 440 -4 19 -16 71
-25 115 -21 101 -39 155 -74 230 -16 33 -38 80 -49 105 -48 105 -147 243 -254
357 -43 45 -78 86 -78 92 0 52 181 -128 282 -280 105 -157 166 -289 213 -454
9 -33 21 -73 26 -89 5 -16 9 -42 9 -58 0 -16 5 -39 11 -50 7 -13 11 -94 11
-224 0 -112 2 -204 4 -204 2 0 10 16 18 35 9 20 26 39 41 45 16 6 25 17 26 32
0 21 1 21 8 4 6 -15 10 -16 15 -7 5 8 17 10 35 5 41 -11 93 -5 106 13 15 20
26 5 35 -47 8 -45 19 193 15 315 -1 50 -8 115 -13 145 -6 30 -16 81 -22 114
-10 56 -40 158 -60 201 -4 11 -21 56 -35 100 -63 185 -225 435 -408 628 -101
107 -162 159 -352 297 -56 42 -255 147 -340 181 -109 44 -157 62 -187 69 -18
5 -51 14 -73 19 -146 39 -452 67 -595 55z m-354 -756 c63 -46 140 -102 172
-126 31 -23 73 -51 93 -61 19 -11 58 -37 85 -59 52 -41 143 -105 338 -236 67
-44 123 -84 126 -87 11 -12 138 -99 145 -99 5 0 22 -11 39 -23 45 -34 308
-212 342 -231 36 -21 47 -28 243 -159 89 -59 172 -112 184 -116 12 -5 35 -22
50 -39 l28 -29 -28 -22 c-15 -12 -91 -63 -168 -114 -77 -51 -186 -126 -243
-165 -57 -40 -105 -72 -107 -72 -3 0 -82 -52 -176 -116 -95 -64 -179 -118
-187 -122 -8 -3 -78 -48 -156 -100 -77 -53 -169 -112 -203 -132 -35 -21 -100
-63 -145 -94 -46 -31 -117 -78 -158 -105 -41 -26 -144 -94 -228 -150 -85 -55
-158 -101 -163 -101 -5 0 -9 535 -9 1320 0 726 3 1320 6 1320 3 0 57 -37 120
-82z m-1373 -1311 c-3 -5 -10 -4 -15 1 -6 6 -7 16 -3 22 6 9 9 9 16 -1 4 -7 5
-17 2 -22z m184 -29 c-3 -8 -6 -5 -6 6 -1 11 2 17 5 13 3 -3 4 -12 1 -19z"/>
<path d="M590 2426 c0 -20 5 -36 10 -36 6 0 10 13 10 29 0 17 -4 33 -10 36 -6
4 -10 -8 -10 -29z"/>
<path d="M660 2394 c0 -8 5 -12 10 -9 6 3 10 10 10 16 0 5 -4 9 -10 9 -5 0
-10 -7 -10 -16z"/>
<path d="M915 2398 c-4 -10 -4 -26 0 -35 8 -17 8 -17 12 0 3 9 3 25 0 35 -4
16 -4 16 -12 0z"/>
<path d="M1350 2309 c0 -5 5 -7 10 -4 6 3 10 8 10 11 0 2 -4 4 -10 4 -5 0 -10
-5 -10 -11z"/>
<path d="M4062 2290 c0 -19 2 -27 5 -17 2 9 2 25 0 35 -3 9 -5 1 -5 -18z"/>
<path d="M1295 2301 c-3 -5 -1 -12 4 -15 13 -8 42 4 35 15 -7 12 -31 12 -39 0z"/>
<path d="M4061 2204 c0 -11 3 -14 6 -6 3 7 2 16 -1 19 -3 4 -6 -2 -5 -13z"/>
<path d="M1625 1530 c3 -5 8 -10 11 -10 2 0 4 5 4 10 0 6 -5 10 -11 10 -5 0
-7 -4 -4 -10z"/>
</g>
</svg>
