<?xml version="1.0" encoding="UTF-8" standalone="no" ?>
<!DOCTYPE svg PUBLIC "-//W3C//DTD SVG 1.1//EN" "http://www.w3.org/Graphics/SVG/1.1/DTD/svg11.dtd">
<svg xmlns="http://www.w3.org/2000/svg" xmlns:xlink="http://www.w3.org/1999/xlink" version="1.1" width="1080" height="1080" viewBox="0 0 1080 1080" xml:space="preserve">
<desc>Created with Fabric.js 5.2.4</desc>
<defs>
</defs>
<g transform="matrix(1 0 0 1 540 540)" id="3956b172-fb05-4b05-af08-2fdd6e8617b4"  >
<rect style="stroke: none; stroke-width: 1; stroke-dasharray: none; stroke-linecap: butt; stroke-dashoffset: 0; stroke-linejoin: miter; stroke-miterlimit: 4; fill: rgb(255,255,255); fill-rule: nonzero; opacity: 1; visibility: hidden;" vector-effect="non-scaling-stroke"  x="-540" y="-540" rx="0" ry="0" width="1080" height="1080" />
</g>
<g transform="matrix(1 0 0 1 540 540)" id="c255f2da-39a8-4a07-bb88-8a2b1c4860bc"  >
</g>
<g transform="matrix(1 0 0 1 540 540)"  >
<g style="" vector-effect="non-scaling-stroke"   >
		<g transform="matrix(1 0 0 1 0 0)"  >
<rect style="stroke: none; stroke-width: 1; stroke-dasharray: none; stroke-linecap: butt; stroke-dashoffset: 0; stroke-linejoin: miter; stroke-miterlimit: 4; fill: rgb(255,255,255); fill-rule: nonzero; opacity: 1; visibility: hidden;" vector-effect="non-scaling-stroke"  x="-540" y="-540" rx="0" ry="0" width="1080" height="1080" />
</g>
		<g transform="matrix(0.79 0 0 0.79 0 19.18)"  >
<rect style="stroke: none; stroke-width: 1; stroke-dasharray: none; stroke-linecap: butt; stroke-dashoffset: 0; stroke-linejoin: miter; stroke-miterlimit: 4; fill: rgb(215,237,255); fill-rule: nonzero; opacity: 1; visibility: hidden;" vector-effect="non-scaling-stroke"  x="-540" y="-540" rx="0" ry="0" width="1080" height="1080" />
</g>
		<g transform="matrix(0.27 0 0 -0.27 -1.41 1.52)"  >
<path style="stroke: none; stroke-width: 1; stroke-dasharray: none; stroke-linecap: butt; stroke-dashoffset: 0; stroke-linejoin: miter; stroke-miterlimit: 4; fill: rgb(215,237,255); fill-rule: nonzero; opacity: 1;" vector-effect="non-scaling-stroke"  transform=" translate(-2504.68, -2565.93)" d="M 2329 3660 C 1921 3591 1568 3285 1436 2885 C 1422 2841 1403 2773 1395 2735 C 1378 2655 1375 2494 1390 2485 C 1396 2482 1400 2467 1400 2452 C 1401 2429 1402 2427 1411 2443 C 1417 2452 1425 2458 1429 2455 C 1434 2453 1441 2460 1445 2473 C 1452 2495 1452 2495 1463 2468 C 1474 2440 1490 2435 1548 2440 C 1565 2441 1570 2436 1571 2418 C 1571 2405 1574 2401 1577 2408 C 1580 2415 1579 2428 1575 2438 C 1567 2458 1566 2558 1573 2580 C 1576 2588 1581 2618 1584 2646 C 1603 2804 1705 2987 1872 3163 C 1923 3216 1973 3260 1983 3260 C 1994 3260 1968 3226 1905 3161 C 1789 3041 1744 2982 1689 2877 C 1622 2748 1609 2695 1604 2535 C 1601 2436 1603 2402 1610 2418 C 1616 2432 1627 2440 1637 2438 C 1647 2437 1661 2439 1668 2444 C 1675 2448 1687 2447 1694 2441 C 1715 2424 1720 2439 1720 2519 C 1721 2621 1741 2707 1783 2793 C 1817 2860 1907 2977 1917 2966 C 1919 2964 1898 2930 1870 2890 C 1766 2748 1721 2573 1746 2418 C 1753 2377 1774 2367 1783 2400 C 1788 2420 1820 2429 1820 2409 C 1820 2404 1825 2402 1830 2405 C 1836 2408 1840 2405 1840 2397 C 1840 2389 1846 2380 1853 2377 C 1862 2374 1865 2400 1866 2489 C 1866 2590 1869 2613 1892 2668 C 1923 2742 1994 2849 1998 2828 C 2000 2820 1985 2789 1965 2759 C 1868 2612 1859 2414 1942 2242 C 1974 2175 1978 2150 1968 2045 C 1966 2023 1970 1993 1978 1978 C 1985 1963 1988 1945 1984 1939 C 1980 1931 1981 1930 1988 1934 C 1995 1938 2002 1931 2006 1915 C 2009 1901 2015 1890 2019 1890 C 2026 1890 2053 1829 2051 1818 C 2051 1813 2054 1810 2060 1810 C 2065 1810 2070 1801 2070 1790 C 2070 1779 2081 1752 2094 1731 C 2108 1710 2116 1690 2113 1687 C 2110 1683 2111 1673 2115 1663 C 2120 1653 2122 1639 2121 1633 C 2120 1626 2123 1620 2129 1620 C 2134 1620 2150 1600 2164 1576 C 2178 1551 2205 1521 2223 1509 C 2240 1496 2258 1482 2261 1477 C 2265 1471 2282 1470 2299 1473 C 2321 1478 2329 1476 2324 1469 C 2320 1461 2324 1461 2339 1469 C 2350 1475 2372 1478 2387 1475 C 2410 1471 2411 1471 2395 1479 C 2376 1488 2376 1489 2397 1489 C 2409 1490 2461 1515 2512 1545 C 2563 1575 2608 1600 2613 1600 C 2617 1600 2618 1605 2615 1610 C 2612 1616 2613 1620 2618 1620 C 2623 1620 2667 1650 2716 1688 C 2765 1725 2819 1764 2835 1774 C 2852 1785 2898 1825 2938 1863 C 2977 1902 3010 1930 3010 1927 C 3010 1923 3020 1928 3031 1938 C 3066 1966 3190 2094 3190 2102 C 3190 2106 3205 2126 3223 2147 C 3240 2167 3248 2180 3240 2176 C 3228 2170 3228 2171 3241 2182 C 3249 2189 3271 2221 3290 2252 C 3309 2283 3327 2307 3330 2305 C 3342 2298 3370 2370 3371 2408 C 3371 2437 3373 2441 3380 2425 C 3384 2414 3386 2392 3384 2375 L 3380 2345 L 3390 2374 C 3395 2390 3404 2406 3410 2410 C 3417 2414 3421 2459 3421 2528 C 3421 2757 3341 2957 3180 3133 C 3151 3164 3132 3190 3137 3190 C 3156 3190 3251 3091 3296 3025 C 3401 2870 3452 2704 3452 2515 C 3452 2405 3453 2397 3466 2423 C 3474 2438 3485 2450 3490 2450 C 3496 2450 3500 2458 3501 2468 C 3501 2477 3504 2480 3506 2474 C 3510 2464 3561 2463 3600 2472 C 3607 2474 3617 2464 3621 2450 C 3625 2436 3628 2477 3629 2547 C 3630 2679 3617 2763 3573 2895 C 3450 3272 3096 3579 2700 3654 C 2614 3671 2411 3674 2329 3660 z M 2254 3213 C 2304 3175 2371 3127 2403 3105 C 2435 3083 2503 3036 2553 3001 C 2604 2965 2782 2845 2950 2733 C 3296 2502 3282 2512 3274 2499 C 3269 2490 2814 2187 2350 1884 L 2150 1753 L 2150 2516 C 2150 2936 2153 3280 2157 3280 C 2160 3280 2204 3250 2254 3213 z M 1427 2478 C 1424 2470 1421 2473 1421 2484 C 1420 2495 1423 2501 1426 2497 C 1429 2494 1430 2485 1427 2478 z M 3180 2137 C 3180 2135 3170 2125 3158 2114 L 3135 2095 L 3154 2118 C 3172 2139 3180 2145 3180 2137 z M 3130 2087 C 3130 2085 3120 2075 3108 2064 L 3085 2045 L 3104 2068 C 3122 2089 3130 2095 3130 2087 z" stroke-linecap="round" />
</g>
		<g transform="matrix(0.27 0 0 -0.27 -362.43 40.41)"  >
<path style="stroke: none; stroke-width: 1; stroke-dasharray: none; stroke-linecap: butt; stroke-dashoffset: 0; stroke-linejoin: miter; stroke-miterlimit: 4; fill: rgb(215,237,255); fill-rule: nonzero; opacity: 1;" vector-effect="non-scaling-stroke"  transform=" translate(-1385.25, -2450.18)" d="M 1382 2450 C 1382 2436 1384 2431 1387 2438 C 1389 2444 1389 2456 1387 2463 C 1384 2469 1382 2464 1382 2450 z" stroke-linecap="round" />
</g>
</g>
</g>
</svg>